name C:\Users\antoi\Documents\MyRepositories\upper-imu-dc\Results\main_tracking\Case_70\ABD01_angularVelocities_groundFrame.mot
datacolumns 4
datarows 70
range 2.81000000 3.50000000
endheader 
time	radius_imu_x	radius_imu_y	radius_imu_z	
          2.81000000	          0.10734279	         -0.15933610	          0.01438077	
          2.82000000	          0.10764148	         -0.15960189	          0.01519641	
          2.83000000	          0.11093160	         -0.15989157	          0.01660573	
          2.84000000	          0.11500704	         -0.16080284	          0.01845928	
          2.85000000	          0.11911135	         -0.16235107	          0.02070106	
          2.86000000	          0.12290463	         -0.16432955	          0.02324089	
          2.87000000	          0.12619415	         -0.16644269	          0.02594966	
          2.88000000	          0.12884498	         -0.16841274	          0.02867722	
          2.89000000	          0.13075112	         -0.17005603	          0.03128120	
          2.90000000	          0.13182294	         -0.17134087	          0.03364972	
          2.91000000	          0.13198017	         -0.17242210	          0.03571845	
          2.92000000	          0.13114727	         -0.17365718	          0.03748098	
          2.93000000	          0.12925078	         -0.17560573	          0.03899418	
          2.94000000	          0.12621819	         -0.17900756	          0.04037639	
          2.95000000	          0.12197685	         -0.18472779	          0.04179656	
          2.96000000	          0.11645178	         -0.19366393	          0.04345327	
          2.97000000	          0.10956180	         -0.20662202	          0.04554553	
          2.98000000	          0.10121493	         -0.22418156	          0.04824015	
          2.99000000	          0.09130492	         -0.24657882	          0.05164266	
          3.00000000	          0.07971113	         -0.27364454	          0.05578011	
          3.01000000	          0.06630354	         -0.30482092	          0.06060102	
          3.02000000	          0.05095321	         -0.33925162	          0.06599085	
          3.03000000	          0.03354709	         -0.37591507	          0.07179627	
          3.04000000	          0.01400407	         -0.41377001	          0.07785098	
          3.05000000	         -0.00771011	         -0.45189163	          0.08399941	
          3.06000000	         -0.03157044	         -0.48958415	          0.09011626	
          3.07000000	         -0.05748451	         -0.52646009	          0.09612139	
          3.08000000	         -0.08528961	         -0.56247679	          0.10198917	
          3.09000000	         -0.11475779	         -0.59792168	          0.10775021	
          3.10000000	         -0.14560954	         -0.63334116	          0.11348535	
          3.11000000	         -0.17753135	         -0.66942262	          0.11931149	
          3.12000000	         -0.21019637	         -0.70685126	          0.12536137	
          3.13000000	         -0.24328632	         -0.74616768	          0.13176151	
          3.14000000	         -0.27650796	         -0.78765339	          0.13861164	
          3.15000000	         -0.30960284	         -0.83126607	          0.14596952	
          3.16000000	         -0.34234896	         -0.87663109	          0.15384383	
          3.17000000	         -0.37455475	         -0.92308037	          0.16219424	
          3.18000000	         -0.40605105	         -0.96972298	          0.17093611	
          3.19000000	         -0.43668460	         -1.01553144	          0.17994707	
          3.20000000	         -0.46631506	         -1.05943084	          0.18907491	
          3.21000000	         -0.49482024	         -1.10038247	          0.19814708	
          3.22000000	         -0.52210064	         -1.13745484	          0.20698190	
          3.23000000	         -0.54808265	         -1.16987692	          0.21540242	
          3.24000000	         -0.57274393	         -1.19708052	          0.22324893	
          3.25000000	         -0.59612189	         -1.21872185	          0.23039333	
          3.26000000	         -0.61830880	         -1.23468291	          0.23675197	
          3.27000000	         -0.63944481	         -1.24505543	          0.24229520	
          3.28000000	         -0.65970446	         -1.25011355	          0.24705064	
          3.29000000	         -0.67928203	         -1.25028428	          0.25109868	
          3.30000000	         -0.69836757	         -1.24611433	          0.25456462	
          3.31000000	         -0.71712658	         -1.23823786	          0.25760765	
          3.32000000	         -0.73568289	         -1.22734306	          0.26040915	
          3.33000000	         -0.75411031	         -1.21413865	          0.26316039	
          3.34000000	         -0.77243120	         -1.19931799	          0.26605134	
          3.35000000	         -0.79061989	         -1.18352278	          0.26926001	
          3.36000000	         -0.80861039	         -1.16730744	          0.27294134	
          3.37000000	         -0.82630411	         -1.15110437	          0.27721521	
          3.38000000	         -0.84357729	         -1.13519386	          0.28215349	
          3.39000000	         -0.86028465	         -1.11968248	          0.28776888	
          3.40000000	         -0.87626475	         -1.10449627	          0.29400908	
          3.41000000	         -0.89135639	         -1.08939359	          0.30075737	
          3.42000000	         -0.90542443	         -1.07402768	          0.30781945	
          3.43000000	         -0.91833668	         -1.05798991	          0.31493020	
          3.44000000	         -0.92988421	         -1.04075189	          0.32182868	
          3.45000000	         -0.93996707	         -1.02188006	          0.32818480	
          3.46000000	         -0.94868729	         -1.00101612	          0.33365022	
          3.47000000	         -0.95623161	         -0.97788309	          0.33792758	
          3.48000000	         -0.96257778	         -0.95228263	          0.34075969	
          3.49000000	         -0.96766715	         -0.92418921	          0.34193734	
          3.50000000	         -0.97145000	         -0.89388911	          0.34122131	
